<svg version="1" xmlns="http://www.w3.org/2000/svg" width="986.667" height="986.667" viewBox="0 0 740.000000 740.000000"><path d="M0 370v370h740V0H0v370zm223-230v11l-39.2.2-39.3.3-.3 11.7-.3 11.8H212v11h11v45h-11v12H99v-22l39.8-.2 39.7-.3v-23l-33.7-.3-33.8-.2v-11H99v-45h12v-12h112v11zm127-5.5v5.5h11v91h-11v12H249v-12h-12v-91h12v-11h101v5.5zm150 5.5v11l-39.2.2-39.3.3-.3 11.7-.3 11.8H455v22l-16.7.2-16.8.3-.3 22.7-.2 22.8h-45V141h12v-12h112v11zm127 0v11l-16.7.2-16.8.3-.3 45.7-.2 45.8h-44l-.2-45.8-.3-45.7-17.2-.3-17.3-.2v-22h113v11zM180 276v10h-72v21h62v11h10v41h-10v10H67v-20l36.3-.2 36.2-.3v-21l-30.7-.3L78 327v-10H67v-41h11v-10h102v10zm116 0v10h-31v83h-41v-83h-31v-20h103v10zm116-4.5v5.5h10v92h-40l-.2-20.8-.3-20.7-15.7-.3-15.8-.3V369h-41v-91.9l5.3-.3 5.2-.3.3-5.3.3-5.2H412v5.5zm126 4.5v10h-31v83h-41v-83h-31v-20h103v10zm125 0v10h-72v21h31v20h-31v22h72v20H561v-11h-11v-82h11v-10h102v10zM180 509.5v4.5h-33v10h29v2.5c0 1.8.5 2.5 2 2.5 1.9 0 2 .7 2 9.5s-.1 9.5-2 9.5c-1.5 0-2 .7-2 2.5v2.5h-48v-9h34v-11h-14.5c-13.8 0-14.5-.1-14.5-2 0-1.5-.7-2-2.5-2-2.5 0-2.5 0-2.5-9.5s0-9.5 2.5-9.5c2 0 2.5-.5 2.5-2.5V505h47v4.5zm56-2c0 1.8.5 2.5 2 2.5 1.9 0 2 .7 2 19s-.1 19-2 19c-1.5 0-2 .7-2 2.5v2.5h-43v-2.5c0-2-.5-2.5-2.5-2.5H188v-38h2.5c2 0 2.5-.5 2.5-2.5V505h43v2.5zm64 2v4.5h-33v10h14v9h-14v20h-19v-43h2.5c2 0 2.5-.5 2.5-2.5V505h47v4.5zm56 0v4.5h-15v39h-18v-39h-15v-9h48v4.5zm26 7.5v12h2.5c2 0 2.5-.5 2.5-2.5s.5-2.5 2.5-2.5 2.5-.5 2.5-2.5c0-1.8.5-2.5 2-2.5s2 .7 2 2.5c0 2 .5 2.5 2.5 2.5s2.5.5 2.5 2.5c0 2.1.5 2.5 3 2.5h3v-24h18v48h-9c-8.9 0-9 0-9-2.5 0-2-.5-2.5-2.5-2.5s-2.5-.5-2.5-2.5-.5-2.5-2.5-2.5-2.5-.5-2.5-2.5c0-2.1-.5-2.5-3-2.5s-3 .4-3 2.5c0 1.8-.5 2.5-2 2.5s-2 .7-2 2.5c0 2-.5 2.5-2.5 2.5s-2.5.5-2.5 2.5c0 2.5 0 2.5-9.5 2.5H363v-48h19v12zm98-9.5c0 1.8.5 2.5 2 2.5 1.9 0 2 .7 2 21.5V553h-18v-20h-15v20h-19v-43h2.5c2 0 2.5-.5 2.5-2.5V505h43v2.5zm60 0c0 1.8.5 2.5 2 2.5 1.8 0 2 .7 2 7s-.2 7-2 7c-1.7 0-2 .7-2 5s.3 5 2 5c1.9 0 2 .7 2 9.5v9.5h-18v-20h-15v20h-19v-48h48v2.5zm64 2v4.5h-33v10h14v9h-14v11h33v9h-47v-2.5c0-2-.5-2.5-2.5-2.5H552v-38h2.5c2 0 2.5-.5 2.5-2.5V505h47v4.5zm-445 57v4.5h-33v10h29v2.5c0 1.8.5 2.5 2 2.5 1.9 0 2 .7 2 9.5s-.1 9.5-2 9.5c-1.5 0-2 .7-2 2.5v2.5h-48v-9h34v-11h-14.5c-13.8 0-14.5-.1-14.5-2 0-1.5-.7-2-2.5-2-2.5 0-2.5 0-2.5-9.5s0-9.5 2.5-9.5c2 0 2.5-.5 2.5-2.5V562h47v4.5zm56-2c0 1.8.5 2.5 2 2.5 1.9 0 2 .7 2 19s-.1 19-2 19c-1.5 0-2 .7-2 2.5v2.5h-43v-2.5c0-2-.5-2.5-2.5-2.5H167v-38h2.5c2 0 2.5-.5 2.5-2.5V562h43v2.5zm31 17V601h33v9h-52v-48h19v19.5zm60 0V601h15v-39h18v21.5c0 20.8-.1 21.5-2 21.5-1.5 0-2 .7-2 2.5v2.5h-43v-2.5c0-2-.5-2.5-2.5-2.5H287v-43h19v19.5zm88-15v4.5h-15v39h-18v-39h-15v-9h48v4.5zm56 0v4.5h-15v30h15v9h-48v-9h15v-30h-15v-9h48v4.5zm55-2c0 1.8.5 2.5 2 2.5 1.9 0 2 .7 2 19s-.1 19-2 19c-1.5 0-2 .7-2 2.5v2.5h-43v-2.5c0-2-.5-2.5-2.5-2.5H457v-38h2.5c2 0 2.5-.5 2.5-2.5V562h43v2.5zm30 0c0 2 .5 2.5 2.5 2.5s2.5.5 2.5 2.5c0 1.8.5 2.5 2 2.5 1.3 0 2 .7 2 2 0 1.6.7 2 3 2h3v-14h18v48h-18v-7.5c0-7.3-.1-7.5-2.5-7.5-1.8 0-2.5-.5-2.5-2s-.7-2-2.5-2c-2 0-2.5-.5-2.5-2.5s-.5-2.5-2.5-2.5H535v24h-19v-48h9.5c9.5 0 9.5 0 9.5 2.5zm93 2v4.5h-33v10h29v2.5c0 1.8.5 2.5 2 2.5 1.9 0 2 .7 2 9.5s-.1 9.5-2 9.5c-1.5 0-2 .7-2 2.5v2.5h-48v-9h34v-11h-14.5c-13.8 0-14.5-.1-14.5-2 0-1.5-.7-2-2.5-2-2.5 0-2.5 0-2.5-9.5s0-9.5 2.5-9.5c2 0 2.5-.5 2.5-2.5V562h47v4.5z"/><path d="M282.5 152.2c-.3.7-.4 16.4-.3 34.8l.3 33.5h34v-69l-16.8-.3c-12.9-.2-16.9 0-17.2 1zM350 296.5V307h32.1l-.3-10.3-.3-10.2-15.7-.3-15.8-.3v10.6zM207 529v15h15v-30h-15v15zM451 519v5h15v-10h-15v5zM511 519v5h15v-10h-15v5zM186 586v15h15v-30h-15v15zM476 586v15h15v-30h-15v15z"/></svg>